<svg width="48" height="48" viewBox="0 0 48 48" fill="none" xmlns="http://www.w3.org/2000/svg">
<path fill-rule="evenodd" clip-rule="evenodd" d="M23.991 1.69357e-06C28.7385 -0.00178141 33.3799 1.40451 37.3281 4.04097C41.2762 6.67744 44.3538 10.4256 46.1714 14.8114C47.989 19.1972 48.465 24.0236 47.5393 28.68C46.6135 33.3363 44.3276 37.6136 40.9706 40.9706C37.6136 44.3276 33.3363 46.6135 28.68 47.5393C24.0236 48.465 19.1972 47.989 14.8114 46.1714C10.4256 44.3538 6.67744 41.2762 4.04097 37.3281C1.40451 33.3799 -0.00178141 28.7385 1.69357e-06 23.991C0.0023912 17.6289 2.53077 11.5281 7.02944 7.02944C11.5281 2.53077 17.6289 0.0023912 23.991 1.69357e-06" fill="#E31243"/>
<path d="M23.9909 14.5154C25.6318 11.0714 29.77 10.0075 33.5026 11.0443C37.2351 12.0812 40.5709 15.0654 40.5709 19.6995C40.5709 29.148 30.0225 34.9181 24.018 41.2021C18.0315 34.9181 7.44696 29.157 7.44696 19.6995C7.44696 15.0654 10.7648 12.0451 14.4883 11.0443C18.2118 10.0436 22.35 11.0443 23.9909 14.5154Z" fill="#CA013C"/>
<path d="M26.5513 16.3277V21.4397H31.6633V26.5516H26.5513V31.6636H21.4394V26.5516H16.3275V21.4397H21.4394V16.3277H26.5513Z" fill="white"/>
</svg>
